<?xml version="1.0" encoding="UTF-8"?>
<svg width="14px" height="14px" viewBox="0 0 14 14" version="1.1" xmlns="http://www.w3.org/2000/svg" xmlns:xlink="http://www.w3.org/1999/xlink">
    <!-- Generator: Sketch 56.3 (81716) - https://sketch.com -->
    <title>LINKEDIN</title>
    <desc>Created with Sketch.</desc>
    <g id="Symbols" stroke="none" stroke-width="1" fill="none" fill-rule="evenodd">
        <g id="menu-home" transform="translate(-72.000000, -625.000000)" fill="#3F5A5E">
            <g id="Group-5">
                <g transform="translate(30.000000, 504.000000)">
                    <g id="Group-2" transform="translate(3.000000, 119.000000)">
                        <g id="Group">
                            <g id="LINKEDIN" transform="translate(39.000000, 2.000000)">
                                <path d="M4.96743312,13.9998618 L4.96743312,4.88966051 L7.57956706,4.88966051 C7.59598697,5.23109434 7.61240688,5.56561657 7.63430009,6.01279813 C8.6667019,4.86546985 9.81472724,4.33811354 11.2706259,4.64015116 C12.644425,4.92421859 13.4250548,5.60293929 13.5529933,7.00530621 C13.6959833,8.57078727 13.6747743,10.1521651 13.7110349,11.7273224 C13.7288232,12.4717034 13.7144557,13.2167757 13.7144557,13.9950236 L10.8772322,13.9950236 C10.8772322,13.5326365 10.8786005,13.0681759 10.8772322,12.6037153 C10.8738114,11.2504209 10.8902313,9.89712641 10.8573915,8.54452313 C10.8368666,7.69785015 10.4414205,7.20989005 9.80925394,7.11312742 C8.97936434,6.98733601 8.28288652,7.3349903 8.00374805,8.09388576 C7.86007385,8.48439207 7.78139511,8.91844157 7.77455348,9.33521202 C7.74855529,10.861988 7.76429104,12.388764 7.76429104,13.9998618 L4.96743312,13.9998618 Z" id="Fill-4"></path>
                                <polygon id="Fill-6" points="0.34960724 13.9709712 3.09515294 13.9709712 3.09515294 4.87735783 0.34960724 4.87735783"></polygon>
                                <path d="M1.70007638,3.64261319 C0.808612127,3.63914179 -0.01512,2.79592462 0.000615746606,1.90294381 C0.0156673303,1.00236023 0.854451041,0.163981187 1.72675873,0.176422096 C2.60727638,0.190245328 3.433061,1.04037412 3.43101232,1.93128144 C3.42827186,2.82287992 2.59632977,3.64674457 1.70007638,3.64261319" id="Fill-8"></path>
                            </g>
                        </g>
                    </g>
                </g>
            </g>
        </g>
    </g>
</svg>