<?xml version="1.0" encoding="UTF-8"?>
<svg width="19px" height="19px" viewBox="0 0 19 19" version="1.1" xmlns="http://www.w3.org/2000/svg" xmlns:xlink="http://www.w3.org/1999/xlink">
    <!-- Generator: Sketch 56.3 (81716) - https://sketch.com -->
    <title>Group 7</title>
    <desc>Created with Sketch.</desc>
    <defs>
        <polygon id="path-1" points="0 0 11.4716981 0 11.4716981 11.0619946 0 11.0619946"></polygon>
    </defs>
    <g id="Symbols" stroke="none" stroke-width="1" fill="none" fill-rule="evenodd">
        <g id="perfil-logado" transform="translate(-126.000000, -383.000000)">
            <g id="Group-7" transform="translate(126.000000, 383.000000)">
                <circle id="Oval-2" fill="#EE6900" cx="9.5" cy="9.5" r="9.5"></circle>
                <g id="Sino" transform="translate(3.943396, 3.943396)">
                    <mask id="mask-2" fill="white">
                        <use xlink:href="#path-1"></use>
                    </mask>
                    <g id="Clip-2"></g>
                    <path d="M9.03008021,8.56292184 L2.6962411,8.56292184 C2.61028256,8.56216557 2.5242431,8.56136879 2.43815858,8.56096364 L2.43815858,5.31637578 C2.43815858,5.06082507 2.43584363,4.80769171 2.46528314,4.5546934 C2.5075207,4.28365273 2.58068121,4.01808148 2.68129882,3.7631925 C2.75038662,3.6051327 2.82973711,3.45181308 2.919647,3.30551594 C2.96820939,3.22718829 3.01945546,3.14886064 3.0733987,3.07458442 C3.08552244,3.05702822 3.09767315,3.0408225 3.10981038,3.02461678 C3.11455738,3.01826954 3.11807718,3.01352936 3.12074737,3.0099371 C3.14370022,2.98117194 3.16678792,2.95282543 3.19072523,2.9246815 C3.31073544,2.78423192 3.44021268,2.6518852 3.57911651,2.5303423 C3.61283103,2.50063181 3.64654555,2.4722718 3.68159516,2.44391178 C3.68724572,2.43918512 3.69290976,2.43472854 3.69856031,2.43021795 C3.69614635,2.43202759 3.69366496,2.43386424 3.69104872,2.43580892 C3.69388074,2.43360765 3.69664533,2.43160894 3.69945037,2.4295157 C3.70967262,2.42137233 3.71990835,2.41328297 3.73015756,2.40474796 C3.74461435,2.3929718 3.7663265,2.37819759 3.74936135,2.39172936 C3.81607564,2.34262603 3.88392275,2.29556192 3.95402198,2.25079361 C4.11964119,2.14444357 4.29480835,2.05251662 4.47496526,1.97464813 C4.73396021,1.87139068 5.00271888,1.79816783 5.27869247,1.75580338 C5.57767283,1.71913793 5.87980888,1.72029934 6.17877577,1.75610048 C6.45723074,1.79923471 6.72945526,1.87351093 6.99139012,1.97801082 C7.15245112,2.04841117 7.30751095,2.12857547 7.45762148,2.22106962 C7.53583917,2.26833631 7.61137318,2.31966793 7.68554512,2.37368699 C7.70294182,2.38574675 7.71900341,2.39780651 7.73637314,2.41118973 C7.76948079,2.43786165 7.80353246,2.46458758 7.83522411,2.49252895 C7.97412794,2.61002042 8.10360518,2.73831571 8.22228029,2.87606434 C8.25194907,2.90982626 8.28161785,2.94493865 8.30993805,2.98005105 C8.32036258,2.99256996 8.33011282,3.00510239 8.34017323,3.01762131 C8.34315359,3.02179428 8.34625533,3.02602127 8.34904689,3.03001868 C8.40299012,3.10294443 8.45557129,3.17857112 8.50413369,3.2555483 C8.60933648,3.42056305 8.70125575,3.59403178 8.77913629,3.77464454 C8.88814208,4.0484672 8.96436386,4.33260751 9.00445717,4.6249317 C8.99904936,4.58846883 8.99500362,4.55335643 8.98962278,4.51689356 C9.01794298,4.67354886 9.02871814,4.83560607 9.03008021,4.99901375 L9.03008021,8.56292184 Z M6.5756631,9.42992789 C6.5756631,9.46821391 6.57369418,9.5058652 6.57041712,9.54335444 C6.55748423,9.61156701 6.53952114,9.67848314 6.51620418,9.74345457 C6.48917862,9.80041768 6.45857932,9.85605732 6.42325998,9.90799666 C6.41920076,9.91439792 6.41480438,9.92048857 6.41034058,9.92661973 C6.38549972,9.95423698 6.36183213,9.98302914 6.33560223,10.0092824 C6.31039726,10.0345228 6.28397856,10.0574269 6.25641356,10.0812628 C6.24921214,10.0864216 6.24201072,10.091567 6.23445867,10.0970634 C6.18272711,10.1323379 6.12734089,10.1629126 6.07063307,10.1899087 C6.00555056,10.2135285 5.93925433,10.232003 5.87140722,10.2446435 C5.79602156,10.2514904 5.72064937,10.2515849 5.64526371,10.2449676 C5.57616242,10.2319895 5.50838275,10.2137986 5.44262595,10.1901247 C5.3857563,10.1630612 5.33019477,10.1324324 5.27832835,10.0970634 C5.27193608,10.0929985 5.26584049,10.0885959 5.25973142,10.0841258 C5.23213946,10.05925 5.20338771,10.0355357 5.17718479,10.0092824 C5.15197981,9.984042 5.12909439,9.95757266 5.10530543,9.92998242 C5.10015385,9.92275737 5.09501576,9.91554582 5.08952703,9.90799666 C5.0543021,9.85619237 5.02377023,9.80071479 4.9968121,9.74392724 C4.97357605,9.67972558 4.95534324,9.61433549 4.94273401,9.54747339 C4.93921421,9.50825554 4.9371374,9.4687541 4.9371374,9.42992789 C4.93700254,9.41134534 4.9354247,9.39285731 4.93260617,9.37455835 L6.57981673,9.37455835 C6.57725443,9.39258721 6.57577099,9.41103473 6.5756631,9.42992789 L6.5756631,9.42992789 Z M10.6267864,8.56292184 L9.84057729,8.56292184 L9.84057729,4.99901375 C9.84057729,4.98719708 9.83991648,4.97542092 9.83878367,4.96368528 C9.82924921,4.18821453 9.5939758,3.41591741 9.16357622,2.77072715 C8.73743817,2.13195166 8.14270054,1.60256478 7.43875483,1.28790371 C7.04496923,1.11234173 6.64577582,1.00025216 6.21963777,0.944882617 C5.8447323,0.896265455 5.47387257,0.911120699 5.10031568,0.965139768 C4.46917985,1.05697219 3.84883267,1.31491324 3.33500989,1.6943972 C2.80232046,2.08873641 2.35190795,2.59516518 2.05791733,3.19342637 C1.7800962,3.75792564 1.63175231,4.3750935 1.63041721,5.00441566 L1.63041721,8.56292184 L1.24066387,8.56292184 C1.11254869,8.56292184 0.985795577,8.56155785 0.857680399,8.56292184 L0.841497429,8.56292184 C0.629770239,8.56292184 0.427483115,8.74928762 0.436923181,8.96806485 C0.446363247,9.18819256 0.613573783,9.37320787 0.841497429,9.37320787 L2.00427079,9.37320787 C2.0144256,9.37401816 2.02464785,9.37455835 2.03499146,9.37455835 L4.1316031,9.37455835 C4.12918914,9.39258721 4.12786753,9.41103473 4.1279889,9.42992789 C4.13067258,9.75134136 4.22373814,10.0849091 4.41119088,10.3469016 C4.61752374,10.6359036 4.88587784,10.8438635 5.21897731,10.9681209 C5.82450358,11.1963515 6.57430104,10.9964809 6.98698026,10.498155 C7.23915138,10.1929472 7.3848116,9.82831853 7.38749528,9.42857742 C7.38761665,9.41045402 7.3862411,9.39241165 7.38367879,9.37455835 L8.52571098,9.37455835 C8.82509592,9.37455835 9.12448087,9.37996026 9.42251723,9.37455835 L9.43600304,9.37455835 C9.44630619,9.37455835 9.45651495,9.37401816 9.46665628,9.37320787 L10.22762,9.37320787 C10.3557352,9.37320787 10.4824883,9.37455835 10.6106035,9.37320787 L10.6267864,9.37320787 C10.8385271,9.37320787 11.0408142,9.18684208 11.0313607,8.96806485 C11.0219206,8.74793715 10.853348,8.56292184 10.6267864,8.56292184 L10.6267864,8.56292184 Z M8.81725853,0.974708383 C8.85196941,1.00566519 8.8865561,1.04191111 8.92120488,1.07885705 C8.86743096,1.02612158 8.81204259,0.971441584 8.81725853,0.974708383 L8.81725853,0.974708383 Z M11.4602094,3.6849999 C11.2080382,2.56410421 10.6079198,1.52288666 9.77584541,0.732857771 C9.51151008,0.4816691 9.2215652,0.256139486 8.91679942,0.0576194072 C8.73877326,-0.0585215913 8.46231419,0.0157546287 8.36388128,0.203470894 C8.25464623,0.404691926 8.31668095,0.632922493 8.50548227,0.757166352 C8.59988292,0.819288281 8.692935,0.882760688 8.78327643,0.950284524 C8.80372092,0.964734625 8.82318094,0.980278612 8.84338268,0.995917133 C8.84403,0.996470828 8.84467732,0.996997514 8.84532463,0.997551209 C8.89252496,1.03536456 8.93972529,1.07317791 8.98556356,1.11234173 C9.14875532,1.25144083 9.30248005,1.3986428 9.44814026,1.5552981 C9.51691789,1.62957432 9.58434693,1.70520101 9.64906532,1.78352866 C9.68144475,1.82269249 9.7137972,1.86185631 9.74482805,1.90237062 C9.74507079,1.90265422 9.74532702,1.90296483 9.74558325,1.90324843 C9.73247505,1.88584078 9.72013553,1.86901384 9.73538798,1.88886585 C9.74086322,1.89603688 9.74633846,1.90327544 9.75182718,1.91048698 C9.75662813,1.91601043 9.76144256,1.92170944 9.76505676,1.92802967 C9.76505676,1.92802967 9.76504327,1.92801617 9.76504327,1.92802967 C9.77268973,1.93822577 9.78033618,1.9484894 9.78796915,1.95909064 C9.90800633,2.12249832 10.019925,2.29265839 10.1224307,2.46822037 C10.2307891,2.65495078 10.3260664,2.8465024 10.4118226,3.04487393 C10.5238897,3.32215381 10.6136378,3.60849539 10.6793946,3.8997257 C10.7265949,4.10634864 10.9760823,4.24814869 11.1770074,4.18332581 C11.3941424,4.11310102 11.5101069,3.90647808 11.4602094,3.6849999 L11.4602094,3.6849999 Z M3.75509241,2.43798208 C3.73812171,2.45763217 3.71937919,2.47545263 3.7003875,2.49411473 C3.69977844,2.4947368 3.69919706,2.49539546 3.69856031,2.49601753 C3.75528621,2.44043377 3.78712358,2.4082691 3.80284848,2.39172936 C3.78695747,2.40717133 3.77092805,2.42235715 3.75509241,2.43798208 L3.75509241,2.43798208 Z M9.74558325,1.90324843 C9.79921911,1.95887144 9.85515878,2.01573301 9.84947122,2.00655634 C9.82592904,1.98206646 9.80245885,1.95768917 9.77891667,1.93342447 C9.76754155,1.92329073 9.75631042,1.91321328 9.74558325,1.90324843 L9.74558325,1.90324843 Z M0.791599938,3.89837522 C0.858017544,3.60717192 0.946902506,3.32192423 1.05868637,3.0456302 C1.22073184,2.67189927 1.42198056,2.31499528 1.66143457,1.98610017 C1.67761754,1.96449255 1.69380051,1.94153444 1.70997,1.91992681 C1.71384042,1.91476799 1.7334353,1.89380859 1.73406913,1.88836617 C1.75718381,1.85895279 1.78043334,1.82967445 1.80437065,1.80108486 C1.87179969,1.72005626 1.9419259,1.63902766 2.01340068,1.56205048 C2.15231799,1.41214756 2.30066188,1.26899703 2.45574868,1.13529984 C2.50294901,1.09478553 2.55014934,1.05562171 2.59734967,1.01780836 C2.61892696,1.00025216 2.64049077,0.984046442 2.66208154,0.966490245 C2.55689224,1.05157028 2.64589857,0.979995012 2.67015954,0.961088338 C2.76592227,0.889513071 2.86436867,0.821989235 2.96551223,0.755815875 C3.1435249,0.641025354 3.23253123,0.391187159 3.11115896,0.202120417 C2.99652959,0.0252079659 2.74704214,-0.0666244515 2.55824082,0.0562689306 C1.5481403,0.71260062 0.767325483,1.65658385 0.303400193,2.76667572 C0.179330757,3.06243013 0.0808843567,3.36898834 0.0107581538,3.68229894 C-0.0364421752,3.88892188 0.0741414526,4.13065722 0.293960127,4.18062486 C0.498944413,4.22924202 0.740353867,4.1198534 0.791599938,3.89837522 L0.791599938,3.89837522 Z" id="Fill-1" fill="#FFFFFF" mask="url(#mask-2)"></path>
                </g>
            </g>
        </g>
    </g>
</svg>