<?xml version="1.0" encoding="UTF-8"?>
<svg width="14px" height="16px" viewBox="0 0 14 16" version="1.1" xmlns="http://www.w3.org/2000/svg" xmlns:xlink="http://www.w3.org/1999/xlink">
    <!-- Generator: Sketch 56.3 (81716) - https://sketch.com -->
    <title>Page 1</title>
    <desc>Created with Sketch.</desc>
    <g id="Symbols" stroke="none" stroke-width="1" fill="none" fill-rule="evenodd">
        <g id="menu-home" transform="translate(-49.000000, -623.000000)" fill="#3F5A5E">
            <g id="Group-5">
                <g transform="translate(30.000000, 504.000000)">
                    <g id="Group-2" transform="translate(3.000000, 119.000000)">
                        <g id="Group">
                            <g id="Page-1" transform="translate(16.000000, 0.000000)">
                                <path d="M12.69807,11.439687 C12.66657,12.1865391 12.55247,12.5913391 12.45657,12.8606957 C12.32987,13.2180522 12.17797,13.4728696 11.93297,13.7406957 C11.68867,14.0085217 11.45557,14.1745739 11.12867,14.3130783 C10.88157,14.4186783 10.51127,14.5426435 9.82877,14.5770783 C9.09097,14.6130435 8.86907,14.6214609 7.00007,14.6214609 C5.13037,14.6214609 4.90987,14.6130435 4.17137,14.5770783 C3.48887,14.5426435 3.11787,14.4186783 2.87147,14.3130783 C2.54527,14.1745739 2.31147,14.0085217 2.06647,13.7406957 C1.82147,13.4728696 1.67027,13.2180522 1.54287,12.8606957 C1.44697,12.5913391 1.33357,12.1865391 1.30207,11.439687 C1.26847,10.6331478 1.26147,10.3913391 1.26147,8.34744348 C1.26147,6.30431304 1.26847,6.06250435 1.30207,5.25596522 C1.33357,4.50911304 1.44697,4.10431304 1.54287,3.83495652 C1.67027,3.47836522 1.82147,3.22278261 2.06647,2.95495652 C2.31147,2.68713043 2.54527,2.52184348 2.87147,2.38257391 C3.11787,2.27773913 3.48887,2.1530087 4.17137,2.11933913 C4.90987,2.08184348 5.13107,2.07495652 7.00007,2.07495652 C8.86907,2.07495652 9.09027,2.08184348 9.82877,2.11933913 C10.51127,2.1530087 10.88157,2.27773913 11.12867,2.38257391 C11.45557,2.52184348 11.68867,2.68713043 11.93297,2.95495652 C12.17797,3.22278261 12.32987,3.47836522 12.45657,3.83495652 C12.55247,4.10431304 12.66657,4.50911304 12.69807,5.25596522 C12.73167,6.06250435 12.73867,6.30431304 12.73867,8.34744348 C12.73867,10.3913391 12.73167,10.6331478 12.69807,11.439687 M13.95807,5.19321739 C13.92377,4.37826087 13.80547,3.82194783 13.63257,3.33526957 C13.45337,2.83252174 13.21397,2.40476522 12.82547,1.98006957 C12.43557,1.5546087 12.04567,1.29290435 11.58507,1.0970087 C11.13987,0.908 10.63097,0.778678261 9.88617,0.741947826 C9.13927,0.704452174 8.90127,0.695269565 7.00007,0.695269565 C5.09887,0.695269565 4.86087,0.704452174 4.11397,0.741947826 C3.36847,0.778678261 2.86027,0.908 2.41507,1.0970087 C1.95447,1.29290435 1.56387,1.5546087 1.17467,1.98006957 C0.78547,2.40476522 0.54677,2.83252174 0.36757,3.33526957 C0.19467,3.82194783 0.07637,4.37826087 0.04207,5.19321739 C0.00847,6.00893913 7e-05,6.26987826 7e-05,8.34744348 C7e-05,10.4265391 0.00847,10.686713 0.04207,11.5024348 C0.07637,12.3166261 0.19467,12.8737043 0.36757,13.3603826 C0.54677,13.8638957 0.78547,14.290887 1.17467,14.7155826 C1.56387,15.1410435 1.95447,15.403513 2.41507,15.5986435 C2.86027,15.7876522 3.36847,15.9169739 4.11397,15.9537043 C4.86087,15.9912 5.09887,15.9996174 7.00007,15.9996174 C8.90127,15.9996174 9.13927,15.9912 9.88617,15.9537043 C10.63097,15.9169739 11.13987,15.7876522 11.58507,15.5986435 C12.04567,15.403513 12.43557,15.1410435 12.82547,14.7155826 C13.21397,14.290887 13.45337,13.8638957 13.63257,13.3603826 C13.80547,12.8737043 13.92377,12.3166261 13.95807,11.5024348 C13.99237,10.686713 14.00007,10.4265391 14.00007,8.34744348 C14.00007,6.26987826 13.99237,6.00893913 13.95807,5.19321739" id="Fill-1"></path>
                                <path d="M7,10.8986783 C5.7113,10.8986783 4.6669,9.75697391 4.6669,8.34744348 C4.6669,6.93944348 5.7113,5.79697391 7,5.79697391 C8.2887,5.79697391 9.3331,6.93944348 9.3331,8.34744348 C9.3331,9.75697391 8.2887,10.8986783 7,10.8986783 M7,4.41805217 C5.0148,4.41805217 3.4055,6.17728696 3.4055,8.34744348 C3.4055,10.5183652 5.0148,12.2776 7,12.2776 C8.9852,12.2776 10.5945,10.5183652 10.5945,8.34744348 C10.5945,6.17728696 8.9852,4.41805217 7,4.41805217" id="Fill-4"></path>
                                <path d="M10.73653,3.34514087 C10.27243,3.34514087 9.89653,3.75606261 9.89653,4.26263652 C9.89653,4.76997565 10.27243,5.18089739 10.73653,5.18089739 C11.20063,5.18089739 11.57653,4.76997565 11.57653,4.26263652 C11.57653,3.75606261 11.20063,3.34514087 10.73653,3.34514087" id="Fill-6"></path>
                            </g>
                        </g>
                    </g>
                </g>
            </g>
        </g>
    </g>
</svg>