<?xml version="1.0" encoding="UTF-8"?>
<svg width="24px" height="23px" viewBox="0 0 24 23" version="1.1" xmlns="http://www.w3.org/2000/svg" xmlns:xlink="http://www.w3.org/1999/xlink">
    <!-- Generator: Sketch 52.6 (67491) - http://www.bohemiancoding.com/sketch -->
    <title>Fill 1</title>
    <desc>Created with Sketch.</desc>
    <g id="Mobile" stroke="none" stroke-width="1" fill="none" fill-rule="evenodd">
        <g id="Busca-Imoveis-06---SP-6" transform="translate(-28.000000, -716.000000)" fill="#FFFFFF">
            <g id="Group-4">
                <g id="Group-3" transform="translate(28.000000, 586.000000)">
                    <g id="Botões-uteis">
                        <g id="Group-7" transform="translate(0.000000, 130.000000)">
                            <g id="Sino">
                                <path d="M18.4195824,17.4666715 L5.49979999,17.4666715 C5.32446152,17.4651288 5.148958,17.4635035 4.97345448,17.4626771 L4.97345448,10.8443579 C4.97345448,10.3230849 4.96864051,9.80674275 5.02869132,9.2906761 C5.1148476,8.73780658 5.26408061,8.19609362 5.46932069,7.67617039 C5.61024617,7.35375958 5.77210553,7.04101779 5.95550396,6.74260048 C6.05456166,6.58282752 6.15909354,6.42305457 6.26912709,6.27154573 C6.29385714,6.23573455 6.31864219,6.20267807 6.34339974,6.1696216 C6.3530827,6.15667448 6.36026239,6.14700546 6.36570905,6.13967795 C6.41252833,6.0810027 6.45962269,6.02318142 6.50845008,5.96577335 C6.75324723,5.67928391 7.01735527,5.40932271 7.30069167,5.16139916 C7.36946264,5.10079562 7.43823361,5.04294679 7.50972792,4.98509796 C7.52125393,4.97545649 7.53280746,4.96636596 7.54433347,4.95716524 C7.53940947,4.96085655 7.53434792,4.96460295 7.5290113,4.96856973 C7.53478806,4.96407956 7.54042728,4.96000259 7.54614902,4.9557328 C7.56700038,4.93912192 7.58787925,4.92262123 7.60878562,4.90521149 C7.63827462,4.88119045 7.68256312,4.85105396 7.64795757,4.87865612 C7.78404157,4.778495 7.92243627,4.68249349 8.06542488,4.59117499 C8.4032554,4.37424188 8.76056186,4.18672903 9.12804642,4.02789268 C9.65634503,3.81726785 10.2045597,3.66790768 10.7674914,3.58149255 C11.3773524,3.50670228 11.9936503,3.50907132 12.6034838,3.58209858 C13.171477,3.6700839 13.7267613,3.82159273 14.2610567,4.03475189 C14.5895894,4.17835473 14.9058809,4.34187408 15.2120768,4.5305439 C15.3716254,4.62695862 15.5256999,4.731665 15.676996,4.84185324 C15.7124819,4.86645277 15.7452443,4.8910523 15.7806751,4.91835143 C15.8482082,4.97275688 15.9176669,5.02727251 15.9823116,5.08426738 C16.265648,5.32392682 16.5297561,5.5856239 16.7718299,5.86660393 C16.8323484,5.93547158 16.8928668,6.00709394 16.9506344,6.0787163 C16.9718984,6.10425242 16.991787,6.1298161 17.0123082,6.15535222 C17.0183876,6.16386427 17.0247145,6.1724865 17.0304088,6.18064043 C17.1404423,6.32939456 17.2476975,6.4836581 17.3467552,6.64067635 C17.5613482,6.97727389 17.7488453,7.3311159 17.9077063,7.69953029 C18.1300566,8.25807451 18.285534,8.83766468 18.3673164,9.43394837 C18.3562856,9.3595713 18.3480331,9.28794894 18.3370572,9.21357188 C18.3948248,9.53311779 18.416804,9.86368253 18.4195824,10.197002 L18.4195824,17.4666715 Z M13.4130556,19.2351928 C13.4130556,19.3132887 13.4090394,19.3900899 13.4023549,19.4665606 C13.3759743,19.6057008 13.3393332,19.7421965 13.2917712,19.8747254 C13.2366443,19.9909189 13.1742278,20.1044128 13.1021833,20.2103588 C13.0939033,20.2234161 13.0849356,20.2358398 13.0758303,20.2483462 C13.0251599,20.3046799 12.9768826,20.3634102 12.9233788,20.4169617 C12.8719656,20.4684472 12.8180767,20.515167 12.7618496,20.5637876 C12.7471601,20.5743105 12.7324706,20.584806 12.7170659,20.5960176 C12.6115437,20.6679705 12.4985668,20.7303371 12.382894,20.7854037 C12.2501385,20.8335835 12.1149073,20.8712679 11.9765126,20.8970519 C11.8227407,20.9110183 11.6689963,20.9112111 11.5152244,20.897713 C11.3742714,20.8712403 11.2360143,20.8341344 11.1018833,20.7858444 C10.9858805,20.7306401 10.8725459,20.6681634 10.7667486,20.5960176 C10.7537097,20.587726 10.7412759,20.5787456 10.7288146,20.5696275 C10.6725324,20.5188859 10.6138845,20.4705132 10.5604357,20.4169617 C10.5090226,20.3654763 10.4623408,20.311484 10.413816,20.2552054 C10.4033078,20.2404677 10.3928271,20.2257576 10.3816312,20.2103588 C10.3097793,20.1046882 10.2475003,19.9915249 10.192511,19.8756895 C10.1451141,19.7447308 10.1079227,19.6113479 10.0822024,19.4749624 C10.0750227,19.3949657 10.0707864,19.3143906 10.0707864,19.2351928 C10.0705113,19.197288 10.0672928,19.1595761 10.0615436,19.1222498 L13.4215282,19.1222498 C13.4163016,19.1590252 13.4132757,19.1966545 13.4130556,19.2351928 Z M21.6765481,17.4666715 L20.0728365,17.4666715 L20.0728365,10.197002 C20.0728365,10.1728983 20.0714886,10.1488773 20.0691779,10.1249389 C20.0497295,8.5431315 19.5698182,6.9677977 18.6918879,5.65173685 C17.8226504,4.34876085 16.6095029,3.26891604 15.1735925,2.62706951 C14.3703476,2.26895772 13.5560718,2.04031711 12.6868342,1.92737416 C11.922101,1.82820473 11.1656203,1.8585065 10.4036379,1.96869475 C9.11624533,2.15601476 7.85085945,2.68216364 6.80276233,3.45623606 C5.71618097,4.26061025 4.7974283,5.29362505 4.19774543,6.51395987 C3.63104511,7.66542703 3.32845283,8.92432773 3.3257295,10.2080208 L3.3257295,17.4666715 L2.53070956,17.4666715 C2.26937987,17.4666715 2.01082852,17.4638892 1.74949883,17.4666715 L1.71648876,17.4666715 C1.28460706,17.4666715 0.871981231,17.8468209 0.891237103,18.2930833 C0.910492975,18.7421004 1.25156949,19.1194951 1.71648876,19.1194951 L4.08831706,19.1194951 C4.10903087,19.121148 4.12988223,19.1222498 4.15098116,19.1222498 L8.42765534,19.1222498 C8.42273134,19.1590252 8.42003552,19.1966545 8.42028309,19.2351928 C8.42575726,19.8908129 8.61559265,20.5712253 8.99795925,21.1056383 C9.4188376,21.6951454 9.96622703,22.1193426 10.6456842,22.3728031 C11.8808384,22.8383484 13.4102773,22.4306519 14.2520615,21.4141653 C14.7664409,20.7916018 15.063559,20.0478311 15.0690331,19.2324381 C15.0692807,19.1954699 15.0664749,19.1586671 15.0612483,19.1222498 L17.3907686,19.1222498 C18.0014549,19.1222498 18.6121411,19.1332687 19.2200765,19.1222498 L19.2475849,19.1222498 C19.2686013,19.1222498 19.2894251,19.121148 19.3101115,19.1194951 L20.8623273,19.1194951 C21.123657,19.1194951 21.3822083,19.1222498 21.643538,19.1194951 L21.6765481,19.1194951 C22.1084573,19.1194951 22.5210831,18.7393457 22.5017998,18.2930833 C22.4825439,17.8440662 22.138689,17.4666715 21.6765481,17.4666715 Z M17.9852067,1.98810613 C18.0294588,2.02757225 18.0735525,2.07378132 18.1177255,2.12088284 C18.0491703,2.05365161 17.978557,1.98394136 17.9852067,1.98810613 Z M23.3765665,7.5166729 C22.8621872,5.23026681 21.6380639,3.10638838 19.9407963,1.49488529 C19.4016044,0.982509951 18.810174,0.522474027 18.1885119,0.117532225 C17.8253737,-0.119372502 17.2614517,0.0321363351 17.060668,0.415040488 C16.83785,0.825491702 16.9643886,1.29103704 17.3495061,1.54447 C17.5420648,1.67118648 17.7318727,1.80065767 17.9161514,1.93839298 C17.9578541,1.96786834 17.9975487,1.999575 18.0387563,2.0314745 C18.0400767,2.03260393 18.0413971,2.03367826 18.0427175,2.03480769 C18.1389968,2.11193947 18.2352762,2.18907124 18.3287772,2.26895772 C18.6616562,2.55269245 18.9752243,2.85295542 19.2723424,3.17250133 C19.4126352,3.32401016 19.5501772,3.47827371 19.6821899,3.63804666 C19.7482376,3.71793314 19.8142302,3.79781962 19.877527,3.8804608 C19.8780221,3.88103929 19.8785448,3.88167287 19.8790675,3.88225136 C19.8523293,3.8467432 19.8271591,3.81241956 19.8582711,3.85291374 C19.8694395,3.86754123 19.8806079,3.88230646 19.8918038,3.89701659 C19.9015968,3.90828334 19.9114173,3.9199082 19.9187896,3.93280022 C19.9187896,3.93280022 19.9187621,3.93277267 19.9187621,3.93280022 C19.9343593,3.95359825 19.9499566,3.97453402 19.9655263,3.99615846 C20.2103785,4.3294779 20.4386706,4.67657088 20.6477619,5.03468267 C20.8687918,5.41557589 21.0631385,5.80630341 21.2380644,6.21094219 C21.4666591,6.77653846 21.6497274,7.3606188 21.7838583,7.95467118 C21.8801377,8.37614121 22.3890429,8.66538536 22.7988904,8.53315946 C23.2418029,8.38991474 23.4783476,7.96844471 23.3765665,7.5166729 Z M7.61640493,4.93762263 C7.59476938,4.96267407 7.57087497,4.98539297 7.54666291,5.00918483 C7.54588643,5.0099779 7.54514524,5.01081761 7.54433347,5.01161067 C7.61665199,4.94074823 7.65724072,4.89974224 7.67728802,4.87865612 C7.65702895,4.89834272 7.63659341,4.91770277 7.61640493,4.93762263 Z M19.8790675,3.88225136 C19.9474466,3.95316384 20.0187627,4.02565534 20.0115118,4.01395622 C19.9814984,3.98273463 19.9515768,3.95165659 19.9215635,3.9207221 C19.9070616,3.90780282 19.8927433,3.89495532 19.8790675,3.88225136 Z M1.61470773,7.95191647 C1.75018654,7.35791919 1.93149433,6.77607016 2.15951136,6.21248483 C2.49005216,5.45014745 2.90055985,4.72213372 3.3889988,4.05125258 C3.42200886,4.00717729 3.45501893,3.96034728 3.48800149,3.91627198 C3.4958964,3.90574901 3.53586608,3.86299597 3.53715898,3.8518945 C3.58430836,3.791897 3.63173282,3.73217497 3.68056021,3.67385784 C3.81810215,3.50857548 3.96114577,3.34329311 4.10694023,3.18627486 C4.39030415,2.88050248 4.69289642,2.58850363 5.00924289,2.31578772 C5.10552225,2.23314654 5.20180161,2.15326006 5.29808097,2.07612829 C5.3420944,2.04031711 5.38608031,2.00726063 5.43012124,1.97144945 C5.21555581,2.14499594 5.39711117,1.99899651 5.44659876,1.96043063 C5.64193583,1.8144312 5.84274707,1.6766959 6.04905999,1.5417153 C6.41217072,1.30756528 6.59372608,0.79794464 6.34615058,0.412285782 C6.11232928,0.051419278 5.60342409,-0.135900739 5.21830665,0.114777519 C3.15790082,1.4535647 1.56519263,3.37910429 0.618876546,5.64347273 C0.36579937,6.24675337 0.164988133,6.87207167 0.0219445115,7.51116349 C-0.0743348489,7.93263353 0.151233938,8.42572592 0.599620674,8.52765005 C1.01774818,8.62681947 1.51017585,8.40368828 1.61470773,7.95191647 Z" id="Fill-1"></path>
                            </g>
                        </g>
                    </g>
                </g>
            </g>
        </g>
    </g>
</svg>