<?xml version="1.0" encoding="UTF-8"?>
<svg width="18px" height="18px" viewBox="0 0 18 18" version="1.1" xmlns="http://www.w3.org/2000/svg" xmlns:xlink="http://www.w3.org/1999/xlink">
    <!-- Generator: Sketch 56.3 (81716) - https://sketch.com -->
    <title>whatsapp-icon copy 3</title>
    <desc>Created with Sketch.</desc>
    <g id="Symbols" stroke="none" stroke-width="1" fill="none" fill-rule="evenodd">
        <g id="menu-home" transform="translate(-29.000000, -511.000000)">
            <g id="Group-5">
                <g transform="translate(30.000000, 504.000000)">
                    <g id="Group-4">
                        <g id="whatsapp-icon-copy-3" transform="translate(0.000000, 8.000000)">
                            <g id="balloon-tip" fill="#E7FFEB" stroke="#2CB743">
                                <path d="M3.55216688,14.8910485 L0.742766243,15.2335081 L1.30082109,12.3491117 C0.610338168,11.1312986 0.214285714,9.711894 0.214285714,8.19642857 C0.214285714,3.66966584 3.74803801,0 8.10714286,0 C12.4662477,0 16,3.66966584 16,8.19642857 C16,12.7231913 12.4662477,16.3928571 8.10714286,16.3928571 C6.41056916,16.3928571 4.83901858,15.8369819 3.55216688,14.8910485 Z" id="Combined-Shape"></path>
                            </g>
                            <path d="M6.16131189,5.38693401 L6.77871769,7.08069955 C6.77871769,7.08069955 6.8422401,7.56192113 6.22403248,8.01447504 C5.60582486,8.46702895 8.37934,10.9894881 8.94498349,10.7802141 C9.51062699,10.57094 9.75580747,9.61482349 9.75580747,9.61482349 L11.5147458,10.590612 C11.5147458,10.590612 11.6387614,12.6495444 9.79144417,12.5096659 C7.9441269,12.3697874 6.38992131,11.0582905 6.38992131,11.0582905 C6.38992131,11.0582905 3.71004154,8.56736579 4.32147825,6.58079454 C4.9329149,4.59422326 6.16131189,5.38693401 6.16131189,5.38693401 Z" id="phone" fill="#2CB743"></path>
                        </g>
                    </g>
                </g>
            </g>
        </g>
    </g>
</svg>